<svg width="320" height="340" viewBox="0 0 320 340" fill="none" xmlns="http://www.w3.org/2000/svg">
<path d="M4.4 246H39.6V233.52H19.12V190H4.4V246ZM57.2519 188.96C55.7319 187.52 53.8919 186.8 51.7319 186.8C49.4919 186.8 47.6519 187.52 46.2119 188.96C44.6919 190.4 43.9719 192.24 43.9719 194.32C43.9719 196.48 44.6919 198.24 46.2119 199.68C47.6519 201.12 49.4919 201.84 51.7319 201.84C53.8919 201.84 55.7319 201.12 57.2519 199.68C58.6919 198.24 59.4919 196.48 59.4919 194.32C59.4919 192.24 58.6919 190.4 57.2519 188.96ZM44.7719 204.72V246H58.6119V204.72H44.7719ZM103.068 208.72C99.9475 205.76 96.0275 204.24 91.3075 204.24C88.4275 204.24 86.0275 204.72 84.1075 205.68C82.1075 206.64 80.4275 207.92 78.9875 209.68L77.9475 204.72H65.7875V246H79.6275V224.64C79.6275 221.6 80.2675 219.28 81.5475 217.68C82.8275 216.08 84.7475 215.28 87.1475 215.28C89.5475 215.28 91.2275 216.08 92.3475 217.6C93.3875 219.2 93.9475 221.52 93.9475 224.64V246H107.788V223.92C107.788 216.72 106.188 211.68 103.068 208.72ZM115.185 214.24C113.425 217.44 112.545 221.2 112.545 225.52C112.545 229.84 113.425 233.52 115.265 236.64C117.105 239.84 119.825 242.24 123.345 243.92C126.865 245.68 131.025 246.48 135.905 246.48C139.585 246.48 142.865 245.84 145.745 244.56C148.625 243.28 150.865 241.52 152.545 239.28C154.225 237.04 155.265 234.64 155.665 231.92H142.065C141.265 234.96 138.865 236.48 134.945 236.48C130.305 236.48 127.585 233.92 126.945 228.8V228.64H155.745C155.985 227.36 156.145 225.92 156.145 224.16C156.145 220.24 155.185 216.8 153.345 213.76C151.425 210.72 148.865 208.4 145.505 206.72C142.145 205.12 138.305 204.24 133.985 204.24C129.665 204.24 125.905 205.12 122.705 206.88C119.505 208.64 116.945 211.04 115.185 214.24ZM142.465 220.16H127.105C127.425 218.24 128.225 216.72 129.505 215.68C130.785 214.64 132.545 214.08 134.705 214.08C136.785 214.08 138.465 214.64 139.825 215.68C141.185 216.72 142.065 218.24 142.465 220.16ZM172.616 232.16H159.736C159.976 236.56 161.976 240.08 165.736 242.64C169.416 245.2 174.296 246.48 180.296 246.48C184.296 246.48 187.736 245.92 190.776 244.8C193.816 243.68 196.136 242 197.816 239.92C199.416 237.84 200.296 235.44 200.296 232.56C200.296 228.24 198.696 225.2 195.656 223.44C192.616 221.68 188.296 220.48 182.776 219.84L181.176 219.68C178.296 219.44 176.376 219.12 175.336 218.8C174.216 218.48 173.736 217.84 173.736 216.88C173.736 215.76 174.216 214.96 175.336 214.32C176.376 213.76 177.816 213.44 179.736 213.44C181.736 213.44 183.416 213.84 184.696 214.64C185.976 215.44 186.616 216.4 186.776 217.6H199.736C199.496 213.44 197.496 210.16 193.816 207.76C190.056 205.36 185.176 204.08 179.176 204.08C173.496 204.08 168.936 205.36 165.576 207.92C162.216 210.48 160.536 213.92 160.536 218.16C160.536 222.08 161.976 224.88 164.936 226.56C167.896 228.32 172.216 229.52 177.976 230.16C180.696 230.56 182.536 230.88 183.656 231.04C184.776 231.2 185.576 231.52 186.056 231.84C186.536 232.24 186.856 232.8 186.856 233.52C186.856 234.8 186.216 235.68 185.096 236.24C183.896 236.88 182.216 237.12 180.136 237.12C178.056 237.12 176.376 236.72 175.016 235.76C173.656 234.88 172.856 233.68 172.616 232.16ZM207.228 233.04C205.708 234.56 204.988 236.4 204.988 238.64C204.988 240.88 205.708 242.8 207.228 244.24C208.748 245.76 210.668 246.48 212.988 246.48C215.228 246.48 217.148 245.76 218.668 244.24C220.188 242.8 220.988 240.88 220.988 238.64C220.988 236.4 220.188 234.56 218.668 233.04C217.148 231.6 215.228 230.8 212.988 230.8C210.668 230.8 208.748 231.6 207.228 233.04Z" fill="white"/>
<path d="M4.4 278V334H19.12V278H4.4ZM27.9156 278V334H42.6356V312.24H61.7556V300.56H42.6356V290.48H66.0756V278H27.9156ZM67.2562 278L87.4963 313.2V334H102.216V313.2L122.456 278H106.136L94.8563 298.4L84.4563 278H67.2562ZM126.431 278.08V334H141.151V319.2L147.391 312.24L161.791 334H179.551L157.711 300.88L178.271 278.08H160.431L141.151 299.68V278.08H126.431ZM173.819 278L194.059 313.2V334H208.779V313.2L229.019 278H212.699L201.419 298.4L191.019 278H173.819ZM232.994 278.08V334H247.714V319.2L253.954 312.24L268.354 334H286.114L264.274 300.88L284.834 278.08H266.994L247.714 299.68V278.08H232.994ZM291.759 321.04C290.239 322.56 289.519 324.4 289.519 326.64C289.519 328.88 290.239 330.8 291.759 332.24C293.279 333.76 295.199 334.48 297.519 334.48C299.759 334.48 301.679 333.76 303.199 332.24C304.719 330.8 305.519 328.88 305.519 326.64C305.519 324.4 304.719 322.56 303.199 321.04C301.679 319.6 299.759 318.8 297.519 318.8C295.199 318.8 293.279 319.6 291.759 321.04Z" fill="#D15C6B"/>
<g clip-path="url(#clip0_53_127)">
<path d="M77.4351 26.2108C77.4351 26.2108 90.8057 7.64584 113.215 18.9367C113.215 18.9367 114.896 35.3681 77.4351 26.2108V26.2108Z" fill="#3741CB"/>
<path d="M60.794 114.124L72.7665 147.693C72.7665 147.693 59.5639 141.892 57.417 163.866L67.5481 157.761L74.6078 169.66L79.5206 151.041C79.5206 151.041 91.1874 159.28 108.073 159.887C108.073 159.887 68.7706 133.949 66.6236 111.671C64.4767 89.3934 60.7864 114.109 60.7864 114.109L60.794 114.124Z" fill="#EF777D"/>
<path d="M94.8778 108.938C94.8778 108.938 103.786 137.321 135.715 158.376L131.414 140.981C131.414 140.981 155.367 140.981 161.502 137.01L123.33 128.475C123.33 128.475 109.303 116.6 104.084 105.886L94.8701 108.938H94.8778Z" fill="#EF777D"/>
<path d="M124.355 89.4076L98.5683 0.303223C87.2071 1.82943 90.8898 18.9138 90.8898 18.9138L95.1913 56.1425L94.5495 56.264C87.635 76.7576 63.7894 74.5708 53.4061 72.5587C27.788 92.946 0 129.385 0 129.385L51.5877 117.79L80.7586 119.924L87.1689 117.221C88.2844 116.674 89.4686 116.09 90.7064 115.467C90.6147 115.3 90.6758 115.08 91.585 115.019C105.299 108.033 124.561 96.8868 124.362 89.4076H124.355Z" fill="#BDD3EE"/>
<path d="M0 129.386L51.5877 117.792L54.3001 117.989L18.5355 106.979C7.6098 119.409 0 129.386 0 129.386Z" fill="url(#paint0_linear_53_127)"/>
<path d="M94.5418 56.2715L79.2152 59.2024C71.8881 59.7795 62.7884 65.0946 53.3984 72.5662C63.774 74.5859 87.6273 76.7651 94.5418 56.2715V56.2715Z" fill="url(#paint1_linear_53_127)"/>
<mask id="mask0_53_127" style="mask-type:alpha" maskUnits="userSpaceOnUse" x="91" y="-1" width="49" height="120">
<path d="M137.251 57.0623C137.251 57.0623 133.263 49.735 122.513 27.4646C106.912 -4.88179 98.5682 0.304266 98.5682 0.304266L124.362 89.4087C124.561 96.8878 105.299 108.034 91.585 115.02C93.2888 114.906 97.9799 115.354 110.235 117.792C133.263 122.37 139.712 96.4323 139.712 96.4323L137.259 57.0699L137.251 57.0623Z" fill="url(#paint2_linear_53_127)"/>
</mask>
<g mask="url(#mask0_53_127)">
<path d="M137.251 57.0623C137.251 57.0623 133.263 49.735 122.513 27.4646C106.912 -4.88179 98.5682 0.304266 98.5682 0.304266L124.362 89.4087C124.561 96.8878 105.299 108.034 91.585 115.02C93.2888 114.906 97.9799 115.354 110.235 117.792C133.263 122.37 139.712 96.4323 139.712 96.4323L137.259 57.0699L137.251 57.0623Z" fill="url(#paint3_linear_53_127)"/>
<g filter="url(#filter0_f_53_127)">
<circle cx="84.8938" cy="81.7796" r="45.9519" fill="#07BBA6"/>
</g>
</g>
<path d="M98.6752 19.3034C98.6752 20.4087 97.7704 21.308 96.6582 21.308C95.546 21.308 94.6411 20.4087 94.6411 19.3034C94.6411 18.1981 95.546 17.2988 96.6582 17.2988C97.7704 17.2988 98.6752 18.1981 98.6752 19.3034Z" fill="black"/>
</g>
<defs>
<filter id="filter0_f_53_127" x="-0.000411987" y="-3.11467" width="169.788" height="169.788" filterUnits="userSpaceOnUse" color-interpolation-filters="sRGB">
<feFlood flood-opacity="0" result="BackgroundImageFix"/>
<feBlend mode="normal" in="SourceGraphic" in2="BackgroundImageFix" result="shape"/>
<feGaussianBlur stdDeviation="19.4712" result="effect1_foregroundBlur_53_127"/>
</filter>
<linearGradient id="paint0_linear_53_127" x1="48.1343" y1="87.6998" x2="0.299003" y2="135.833" gradientUnits="userSpaceOnUse">
<stop stop-color="#4A33DA"/>
<stop offset="1" stop-color="#8C3D99"/>
</linearGradient>
<linearGradient id="paint1_linear_53_127" x1="89.87" y1="41.1804" x2="52.4385" y2="77.6393" gradientUnits="userSpaceOnUse">
<stop stop-color="#4A33DA"/>
<stop offset="1" stop-color="#8C3D99"/>
</linearGradient>
<linearGradient id="paint2_linear_53_127" x1="115.648" y1="-0.00146484" x2="123.296" y2="130.607" gradientUnits="userSpaceOnUse">
<stop stop-color="#3E4996"/>
<stop offset="1" stop-color="#8C3D99"/>
</linearGradient>
<linearGradient id="paint3_linear_53_127" x1="115.648" y1="-0.00146484" x2="123.296" y2="130.607" gradientUnits="userSpaceOnUse">
<stop stop-color="#172177"/>
<stop offset="1" stop-color="#B426CB"/>
</linearGradient>
<clipPath id="clip0_53_127">
<rect width="161.51" height="169.667" fill="white"/>
</clipPath>
</defs>
</svg>
